<svg xmlns="http://www.w3.org/2000/svg" xmlns:xlink="http://www.w3.org/1999/xlink" width="300" zoomAndPan="magnify" viewBox="0 0 224.87999 225" height="300" preserveAspectRatio="xMidYMid meet" version="1.0"><defs><g/><clipPath id="a2678143de"><path d="M 162 81.972656 L 188 81.972656 L 188 107 L 162 107 Z M 162 81.972656 " clip-rule="nonzero"/></clipPath><clipPath id="4e0bbc7ce2"><path d="M 152.023438 110 L 166 110 L 166 123.949219 L 152.023438 123.949219 Z M 152.023438 110 " clip-rule="nonzero"/></clipPath><clipPath id="04c09e7632"><path d="M 158.703125 103.542969 L 189.503906 103.542969 L 189.503906 117.199219 L 158.703125 117.199219 Z M 158.703125 103.542969 " clip-rule="nonzero"/></clipPath></defs><g clip-path="url(#a2678143de)"><path fill="#ffffff" d="M 185.277344 94.234375 C 185.277344 99.890625 180.675781 104.496094 175.015625 104.496094 C 169.359375 104.496094 164.753906 99.890625 164.753906 94.234375 C 164.753906 88.578125 169.359375 83.972656 175.015625 83.972656 C 180.675781 83.972656 185.277344 88.578125 185.277344 94.234375 Z M 162.753906 94.234375 C 162.753906 101.007812 168.242188 106.496094 175.015625 106.496094 C 181.789062 106.496094 187.277344 101.007812 187.277344 94.234375 C 187.277344 87.460938 181.789062 81.972656 175.015625 81.972656 C 168.242188 81.972656 162.753906 87.460938 162.753906 94.234375 " fill-opacity="1" fill-rule="nonzero"/></g><path fill="#ffffff" d="M 174.195312 86.441406 L 174.195312 88.339844 C 172.425781 88.722656 171.386719 90 171.386719 91.84375 C 171.386719 95.035156 176.09375 95.238281 176.09375 96.695312 C 176.09375 97.410156 175.726562 97.71875 174.816406 97.71875 C 174.050781 97.71875 173.28125 97.425781 172.296875 96.695312 L 170.949219 98.8125 C 171.859375 99.632812 173.15625 100.074219 174.195312 100.199219 L 174.195312 102.023438 L 176.238281 102.023438 L 176.238281 100.089844 C 178.15625 99.632812 179.085938 98.246094 179.085938 96.476562 C 179.085938 93.15625 174.378906 93.085938 174.378906 91.699219 C 174.378906 90.96875 174.761719 90.75 175.546875 90.75 C 176.21875 90.75 176.785156 91.042969 177.441406 91.625 L 178.992188 89.835938 C 178.265625 89.070312 177.386719 88.488281 176.238281 88.304688 L 176.238281 86.441406 L 174.195312 86.441406 " fill-opacity="1" fill-rule="nonzero"/><g clip-path="url(#4e0bbc7ce2)"><path fill="#ffffff" d="M 162.777344 123.351562 L 165.3125 120.792969 C 165.648438 120.453125 165.652344 119.90625 165.320312 119.5625 L 164.371094 118.570312 L 156.921875 111.421875 L 156.054688 110.648438 C 155.699219 110.332031 155.15625 110.355469 154.828125 110.703125 L 152.363281 113.304688 C 152.03125 113.65625 152.042969 114.207031 152.390625 114.542969 L 161.539062 123.363281 C 161.886719 123.699219 162.4375 123.691406 162.777344 123.351562 " fill-opacity="1" fill-rule="nonzero"/></g><g clip-path="url(#04c09e7632)"><path fill="#ffffff" d="M 182.222656 112.644531 L 182.214844 112.644531 C 182.222656 112.640625 182.226562 112.640625 182.222656 112.644531 Z M 178.558594 116.957031 C 179.089844 116.761719 179.515625 116.367188 179.925781 115.976562 C 183.726562 112.375 190.960938 104.746094 189.550781 103.707031 C 189.472656 103.675781 189.398438 103.652344 189.320312 103.636719 C 188.425781 103.414062 187.464844 103.917969 186.648438 104.40625 C 184.777344 105.527344 182.90625 106.644531 181.035156 107.765625 C 180.792969 107.910156 180.695312 108.214844 180.808594 108.476562 C 181.097656 109.113281 181.144531 109.726562 181.035156 110.300781 C 180.75 111.78125 179.421875 112.835938 177.910156 112.835938 L 170.28125 112.835938 C 170.011719 112.835938 169.792969 112.617188 169.792969 112.347656 L 169.792969 111.988281 C 169.792969 111.71875 170.015625 111.5 170.285156 111.503906 C 172.304688 111.511719 174.320312 111.523438 176.339844 111.535156 C 177.636719 111.542969 179.363281 111.167969 179.417969 109.871094 C 179.445312 109.1875 178.902344 108.582031 178.273438 108.316406 C 177.640625 108.054688 176.933594 108.054688 176.25 108.058594 C 174.292969 108.074219 172.027344 108.230469 170.023438 107.707031 C 167.859375 107.144531 166.207031 106.367188 163.933594 107.148438 C 161.917969 107.84375 160.230469 109.261719 158.757812 110.804688 C 160.515625 112.511719 162.277344 114.214844 164.035156 115.917969 C 164.457031 116.324219 164.894531 116.742188 165.445312 116.949219 C 165.914062 117.121094 166.429688 117.125 166.929688 117.125 C 170.324219 117.125 173.714844 117.125 177.109375 117.125 C 177.597656 117.125 178.097656 117.125 178.558594 116.957031 " fill-opacity="1" fill-rule="nonzero"/></g><g fill="#ffffff" fill-opacity="1"><g transform="translate(14.008149, 120.082311)"><g><path d="M 14.3125 0.46875 C 12.070312 0.46875 10.078125 0.191406 8.328125 -0.359375 C 6.585938 -0.910156 5.132812 -1.632812 3.96875 -2.53125 C 2.8125 -3.4375 1.921875 -4.425781 1.296875 -5.5 L 4.8125 -9.78125 L 5.375 -9.78125 C 6.34375 -8.34375 7.570312 -7.195312 9.0625 -6.34375 C 10.5625 -5.488281 12.3125 -5.0625 14.3125 -5.0625 C 16.019531 -5.0625 17.304688 -5.421875 18.171875 -6.140625 C 19.046875 -6.859375 19.484375 -7.851562 19.484375 -9.125 C 19.484375 -9.894531 19.34375 -10.535156 19.0625 -11.046875 C 18.78125 -11.566406 18.316406 -12.007812 17.671875 -12.375 C 17.023438 -12.738281 16.148438 -13.054688 15.046875 -13.328125 L 10.890625 -14.265625 C 7.992188 -14.929688 5.832031 -16.035156 4.40625 -17.578125 C 2.988281 -19.117188 2.28125 -21.117188 2.28125 -23.578125 C 2.28125 -25.398438 2.734375 -27.003906 3.640625 -28.390625 C 4.554688 -29.773438 5.882812 -30.847656 7.625 -31.609375 C 9.375 -32.378906 11.460938 -32.765625 13.890625 -32.765625 C 16.378906 -32.765625 18.507812 -32.4375 20.28125 -31.78125 C 22.0625 -31.125 23.566406 -30.117188 24.796875 -28.765625 L 21.625 -24.4375 L 21.078125 -24.4375 C 20.160156 -25.394531 19.113281 -26.113281 17.9375 -26.59375 C 16.757812 -27.070312 15.410156 -27.3125 13.890625 -27.3125 C 12.140625 -27.3125 10.804688 -27 9.890625 -26.375 C 8.984375 -25.757812 8.53125 -24.90625 8.53125 -23.8125 C 8.53125 -22.800781 8.847656 -21.992188 9.484375 -21.390625 C 10.128906 -20.785156 11.238281 -20.3125 12.8125 -19.96875 L 17.0625 -19.09375 C 20.195312 -18.425781 22.46875 -17.300781 23.875 -15.71875 C 25.289062 -14.132812 26 -12.066406 26 -9.515625 C 26 -7.503906 25.5625 -5.75 24.6875 -4.25 C 23.820312 -2.757812 22.515625 -1.597656 20.765625 -0.765625 C 19.015625 0.0546875 16.863281 0.46875 14.3125 0.46875 Z M 14.3125 0.46875 "/></g></g></g><g fill="#ffffff" fill-opacity="1"><g transform="translate(41.756294, 120.082311)"><g><path d="M 10.046875 0 L 4.203125 0 L 4.203125 -32.296875 L 12.546875 -32.296875 L 20.71875 -8.546875 L 21.1875 -8.546875 L 29.3125 -32.296875 L 37.46875 -32.296875 L 37.46875 0 L 31.421875 0 L 31.421875 -21.34375 L 30.859375 -21.4375 L 23.390625 0 L 18.078125 0 L 10.609375 -21.4375 L 10.046875 -21.34375 Z M 10.046875 0 "/></g></g></g><g fill="#ffffff" fill-opacity="1"><g transform="translate(83.444795, 120.082311)"><g><path d="M 25.890625 -32.296875 L 25.890625 -26.9375 L 16.578125 -26.9375 L 16.578125 0 L 10.203125 0 L 10.203125 -26.9375 L 0.890625 -26.9375 L 0.890625 -32.296875 Z M 25.890625 -32.296875 "/></g></g></g><g fill="#ffffff" fill-opacity="1"><g transform="translate(110.220872, 120.082311)"><g><path d="M 10.578125 -14.1875 L 10.578125 -5.34375 L 26 -5.34375 L 26 0 L 4.203125 0 L 4.203125 -32.296875 L 25.65625 -32.296875 L 25.65625 -26.953125 L 10.578125 -26.953125 L 10.578125 -19.40625 L 23.75 -19.40625 L 23.75 -14.1875 Z M 10.578125 -14.1875 "/></g></g></g><g fill="#ffffff" fill-opacity="1"><g transform="translate(16.310176, 154.761572)"><g><path d="M 10.3125 -19.984375 C 11.75 -19.984375 12.972656 -19.71875 13.984375 -19.1875 C 15.003906 -18.664062 15.769531 -17.929688 16.28125 -16.984375 C 16.800781 -16.046875 17.0625 -14.953125 17.0625 -13.703125 C 17.0625 -12.453125 16.800781 -11.359375 16.28125 -10.421875 C 15.769531 -9.484375 15.003906 -8.753906 13.984375 -8.234375 C 12.972656 -7.710938 11.75 -7.453125 10.3125 -7.453125 L 6.546875 -7.453125 L 6.546875 0 L 2.59375 0 L 2.59375 -19.984375 Z M 9.796875 -10.578125 C 11.992188 -10.578125 13.09375 -11.617188 13.09375 -13.703125 C 13.09375 -15.796875 11.992188 -16.84375 9.796875 -16.84375 L 6.546875 -16.84375 L 6.546875 -10.578125 Z M 9.796875 -10.578125 "/></g></g></g><g fill="#ffffff" fill-opacity="1"><g transform="translate(42.907878, 154.761572)"><g><path d="M 19.171875 0 L 15.015625 0 L 13.515625 -4.609375 L 5.859375 -4.609375 L 4.359375 0 L 0.296875 0 L 7.203125 -19.984375 L 12.265625 -19.984375 Z M 9.5 -15.8125 L 6.921875 -7.921875 L 12.421875 -7.921875 L 9.84375 -15.8125 Z M 9.5 -15.8125 "/></g></g></g><g fill="#ffffff" fill-opacity="1"><g transform="translate(70.352653, 154.761572)"><g><path d="M 10.9375 0 L 7 0 L 7 -7.84375 L 0.09375 -19.984375 L 4.328125 -19.984375 L 8.890625 -12.125 L 9.234375 -12.125 L 13.703125 -19.984375 L 17.84375 -19.984375 L 10.9375 -7.84375 Z M 10.9375 0 "/></g></g></g><g fill="#ffffff" fill-opacity="1"><g transform="translate(98.002455, 154.761572)"><g><path d="M 6.21875 0 L 2.59375 0 L 2.59375 -19.984375 L 7.765625 -19.984375 L 12.8125 -5.28125 L 13.109375 -5.28125 L 18.125 -19.984375 L 23.171875 -19.984375 L 23.171875 0 L 19.4375 0 L 19.4375 -13.203125 L 19.09375 -13.25 L 14.46875 0 L 11.171875 0 L 6.5625 -13.25 L 6.21875 -13.203125 Z M 6.21875 0 "/></g></g></g><g fill="#ffffff" fill-opacity="1"><g transform="translate(133.494633, 154.761572)"><g><path d="M 6.546875 -8.765625 L 6.546875 -3.3125 L 16.078125 -3.3125 L 16.078125 0 L 2.59375 0 L 2.59375 -19.984375 L 15.859375 -19.984375 L 15.859375 -16.671875 L 6.546875 -16.671875 L 6.546875 -12 L 14.6875 -12 L 14.6875 -8.765625 Z M 6.546875 -8.765625 "/></g></g></g><g fill="#ffffff" fill-opacity="1"><g transform="translate(160.379325, 154.761572)"><g><path d="M 6.421875 0 L 2.59375 0 L 2.59375 -19.984375 L 7.125 -19.984375 L 15.140625 -7.109375 L 15.5 -7.15625 L 15.5 -19.984375 L 19.296875 -19.984375 L 19.296875 0 L 15.25 0 L 6.765625 -13.75 L 6.421875 -13.6875 Z M 6.421875 0 "/></g></g></g><g fill="#ffffff" fill-opacity="1"><g transform="translate(191.991302, 154.761572)"><g><path d="M 16.015625 -19.984375 L 16.015625 -16.65625 L 10.25 -16.65625 L 10.25 0 L 6.3125 0 L 6.3125 -16.65625 L 0.546875 -16.65625 L 0.546875 -19.984375 Z M 16.015625 -19.984375 "/></g></g></g></svg>